<svg width="293" height="111" viewBox="0 0 293 111" fill="none" xmlns="http://www.w3.org/2000/svg">
<rect x="54.0019" y="29.9465" width="185.079" height="64.3114" fill="#3DA9FC"/>
<line x1="160.042" y1="42.2196" x2="59.893" y2="42.2196" stroke="#094067" stroke-width="9.81853"/>
<path d="M232.699 61.8567H60.1385" stroke="#094067" stroke-width="9.81853"/>
<line x1="210.117" y1="81.4938" x2="59.893" y2="81.4938" stroke="#094067" stroke-width="9.81853"/>
<path d="M10.5261 33.0104C10.5261 30.3486 11.3427 28.1103 12.9761 26.2955C14.67 24.4201 16.757 23.0288 19.2373 22.1213C21.7781 21.1534 24.3188 20.6695 26.8596 20.6695H34.119C35.0264 20.6695 35.4801 21.0627 35.4801 21.8491V29.1085C35.4801 29.9554 35.0264 30.3789 34.119 30.3789H30.7615C28.9467 30.3789 27.6158 30.6208 26.7689 31.1048C25.922 31.5283 25.4078 32.0727 25.2263 32.7381C25.0448 33.3431 24.954 34.1598 24.954 35.1882V52.4292C24.833 55.2119 23.7441 57.2687 21.6873 58.5996C19.691 59.87 17.3317 60.6867 14.6095 61.0496C14.2465 61.1101 14.0348 61.2009 13.9743 61.3219C13.9743 61.4429 14.186 61.5336 14.6095 61.5941C21.3244 62.199 24.7726 65.3448 24.954 71.0313V88.4537C24.954 90.2081 25.3473 91.4482 26.1337 92.1741C26.9806 92.9001 28.5232 93.263 30.7615 93.263H33.8468C34.9357 93.263 35.4801 93.747 35.4801 94.7149V101.339C35.4801 101.944 35.3591 102.367 35.1171 102.609C34.8752 102.851 34.4517 102.972 33.8468 102.972H27.1318C24.4701 102.972 21.8688 102.519 19.328 101.611C16.7873 100.704 14.67 99.3125 12.9761 97.4372C11.3427 95.6223 10.5261 93.3538 10.5261 90.6315V72.7553C10.5261 70.4566 9.73964 68.672 8.16678 67.4016C6.65441 66.1312 4.29512 65.496 1.0889 65.496C0.362968 65.496 0 64.891 0 63.6812V58.8718C0 57.6619 0.362968 57.057 1.0889 57.057C4.4766 57.057 6.89639 56.4823 8.34826 55.3329C9.80013 54.123 10.5261 52.1569 10.5261 49.4347V33.0104Z" fill="#EF4565"/>
<path d="M282.474 33.0104C282.474 30.3486 281.657 28.1103 280.024 26.2955C278.33 24.4201 276.243 23.0288 273.763 22.1213C271.222 21.1534 268.681 20.6695 266.14 20.6695H258.881C257.974 20.6695 257.52 21.0627 257.52 21.8491V29.1085C257.52 29.9554 257.974 30.3789 258.881 30.3789H262.238C264.053 30.3789 265.384 30.6208 266.231 31.1048C267.078 31.5283 267.592 32.0727 267.774 32.7381C267.955 33.3431 268.046 34.1598 268.046 35.1882V52.4292C268.167 55.2119 269.256 57.2687 271.313 58.5996C273.309 59.87 275.668 60.6867 278.391 61.0496C278.754 61.1101 278.965 61.2009 279.026 61.3219C279.026 61.4429 278.814 61.5336 278.391 61.5941C271.676 62.199 268.227 65.3448 268.046 71.0313V88.4537C268.046 90.2081 267.653 91.4482 266.866 92.1741C266.019 92.9001 264.477 93.263 262.238 93.263H259.153C258.064 93.263 257.52 93.747 257.52 94.7149V101.339C257.52 101.944 257.641 102.367 257.883 102.609C258.125 102.851 258.548 102.972 259.153 102.972H265.868C268.53 102.972 271.131 102.519 273.672 101.611C276.213 100.704 278.33 99.3125 280.024 97.4372C281.657 95.6223 282.474 93.3538 282.474 90.6315V72.7553C282.474 70.4566 283.26 68.672 284.833 67.4016C286.346 66.1312 288.705 65.496 291.911 65.496C292.637 65.496 293 64.891 293 63.6812V58.8718C293 57.6619 292.637 57.057 291.911 57.057C288.523 57.057 286.104 56.4823 284.652 55.3329C283.2 54.123 282.474 52.1569 282.474 49.4347V33.0104Z" fill="#EF4565"/>
</svg>
