<svg width="257" height="217" viewBox="0 0 257 217" fill="none" xmlns="http://www.w3.org/2000/svg">
<path d="M71.1205 50.4499L89.9173 46.2791L144.206 77.6224L180.891 75.5851C180.891 75.5851 187.585 75.8183 189.085 80.3162C189.889 82.7237 188.108 86.741 188.108 86.741L192.433 86.346C192.433 86.346 199.867 85.0068 201.652 91.6685C202.95 96.5155 201.768 98.5642 201.768 98.5642L210.279 98.0152C210.279 98.0152 222.226 97.3636 224.186 104.679C225.918 111.142 219.587 115.011 219.587 115.011L236.911 113.391C236.911 113.391 248.743 112.507 248.453 124.152C248.268 131.569 239.466 132.621 239.466 132.621C239.466 132.621 164.49 139.01 152.906 137.785C141.322 136.56 89.0288 114.053 89.0288 114.053L40.875 121.761L27.064 60.5231L71.1205 50.4499Z" fill="#3DA9FC"/>
<path d="M71.1205 50.4499L89.9174 46.2791L144.206 77.6224M71.1205 50.4499L89.0287 114.053M71.1205 50.4499L27.064 60.5231L40.875 121.761L89.0287 114.053M104.996 86.3968L157.236 116.557C157.236 116.557 166.021 120.264 172.527 108.997C179.032 97.7294 164.692 89.4501 164.692 89.4501L147.278 79.3965L144.206 77.6224M89.0287 114.053C89.0287 114.053 141.322 136.56 152.906 137.785C164.49 139.01 239.466 132.621 239.466 132.621C239.466 132.621 248.268 131.569 248.453 124.152C248.743 112.507 236.911 113.391 236.911 113.391L219.587 115.011M160.107 117.126L219.587 115.011M219.587 115.011C219.587 115.011 225.918 111.142 224.186 104.679C222.226 97.3636 210.279 98.0153 210.279 98.0153L176.233 100.211M167.923 88.5842L188.108 86.741M201.768 98.5642C201.768 98.5642 202.95 96.5155 201.652 91.6685C199.867 85.0068 192.433 86.346 192.433 86.346L188.108 86.741M188.108 86.741C188.108 86.741 189.889 82.7237 189.085 80.3162C187.585 75.8183 180.891 75.5851 180.891 75.5851L144.206 77.6224" stroke="#094067" stroke-width="4"/>
<path d="M29.9219 60.8839L73.7008 51.8113L89.2539 113.448L41.4426 122.232L29.9219 60.8839Z" fill="#EF4565"/>
<path d="M71.1205 50.4499L89.9174 46.2791L144.206 77.6224M71.1205 50.4499L89.0287 114.053M71.1205 50.4499L27.064 60.5231L40.875 121.761L89.0287 114.053M104.996 86.3968L157.236 116.557C157.236 116.557 166.021 120.264 172.527 108.997C179.032 97.7294 164.692 89.4501 164.692 89.4501L147.278 79.3965L144.206 77.6224M89.0287 114.053C89.0287 114.053 141.322 136.56 152.906 137.785C164.49 139.01 239.466 132.621 239.466 132.621C239.466 132.621 248.268 131.569 248.453 124.152C248.743 112.507 236.911 113.391 236.911 113.391L219.587 115.011M160.107 117.126L219.587 115.011M219.587 115.011C219.587 115.011 225.918 111.142 224.186 104.679C222.226 97.3636 210.279 98.0153 210.279 98.0153L176.233 100.211M167.923 88.5842L188.108 86.741M201.768 98.5642C201.768 98.5642 202.95 96.5155 201.652 91.6685C199.867 85.0068 192.433 86.346 192.433 86.346L188.108 86.741M188.108 86.741C188.108 86.741 189.889 82.7237 189.085 80.3162C187.585 75.8183 180.891 75.5851 180.891 75.5851L144.206 77.6224" stroke="#094067" stroke-width="4"/>
<circle cx="44.3228" cy="74.4127" r="5.04841" fill="#D8EEFE" stroke="#094067" stroke-width="2"/>
</svg>
