<svg width="282" height="56" viewBox="0 0 282 56" fill="none" xmlns="http://www.w3.org/2000/svg">
<path d="M62.872 15.116C62.872 14.564 63.1 14.288 63.556 14.288H82.996C83.428 14.288 83.644 14.54 83.644 15.044L83.608 19.22C83.608 19.868 83.296 20.192 82.672 20.192H71.872C71.32 20.192 71.044 20.42 71.044 20.876V23.936C71.044 24.176 71.104 24.368 71.224 24.512C71.344 24.632 71.5 24.692 71.692 24.692H78.172C78.676 24.692 78.928 24.932 78.928 25.412V29.876C78.928 30.284 78.712 30.488 78.28 30.488H71.62C71.452 30.488 71.308 30.536 71.188 30.632C71.092 30.728 71.044 30.848 71.044 30.992V34.592C71.044 34.784 71.068 34.916 71.116 34.988C71.188 35.06 71.308 35.096 71.476 35.096H83.176C83.704 35.096 83.968 35.324 83.968 35.78V40.208C83.968 40.448 83.896 40.64 83.752 40.784C83.608 40.928 83.392 41 83.104 41H63.844C63.484 41 63.232 40.928 63.088 40.784C62.944 40.64 62.872 40.412 62.872 40.1V15.116ZM88.2843 41C87.9483 41 87.7083 40.94 87.5643 40.82C87.4203 40.676 87.3483 40.436 87.3483 40.1V22.748C87.3483 22.484 87.4083 22.28 87.5283 22.136C87.6483 21.992 87.8163 21.92 88.0323 21.92H93.8283C94.2603 21.92 94.4763 22.16 94.4763 22.64V24.26C94.4763 24.452 94.5363 24.548 94.6563 24.548C94.7523 24.548 94.8483 24.5 94.9443 24.404C95.7363 23.516 96.6243 22.82 97.6083 22.316C98.5923 21.812 99.6123 21.56 100.668 21.56C102.348 21.56 103.704 22.088 104.736 23.144C105.792 24.2 106.32 25.616 106.32 27.392V39.92C106.32 40.64 105.96 41 105.24 41H99.9483C99.6363 41 99.4203 40.94 99.3003 40.82C99.1803 40.676 99.1203 40.436 99.1203 40.1V28.364C99.1203 27.836 98.9403 27.416 98.5803 27.104C98.2443 26.792 97.7883 26.636 97.2123 26.636C96.1083 26.636 95.2203 27.236 94.5483 28.436V39.956C94.5483 40.34 94.4523 40.616 94.2603 40.784C94.0923 40.928 93.7923 41 93.3603 41H88.2843ZM117.031 19.292C117.031 19.652 116.935 19.916 116.743 20.084C116.575 20.252 116.287 20.336 115.879 20.336H110.803C110.443 20.336 110.191 20.264 110.047 20.12C109.903 19.952 109.831 19.712 109.831 19.4V15.116C109.831 14.852 109.891 14.648 110.011 14.504C110.155 14.36 110.335 14.288 110.551 14.288H116.383C116.815 14.288 117.031 14.54 117.031 15.044V19.292ZM117.031 39.956C117.031 44.732 114.511 47.12 109.471 47.12C108.463 47.12 107.803 47.06 107.491 46.94C107.179 46.844 107.023 46.604 107.023 46.22L106.987 42.548C106.987 42.332 107.059 42.128 107.203 41.936C107.323 41.744 107.491 41.624 107.707 41.576L108.967 41.36C109.255 41.264 109.471 41.108 109.615 40.892C109.759 40.652 109.831 40.256 109.831 39.704V22.748C109.831 22.484 109.891 22.28 110.011 22.136C110.155 21.992 110.335 21.92 110.551 21.92H116.383C116.815 21.92 117.031 22.16 117.031 22.64V39.956ZM130.862 39.488C129.374 40.736 127.634 41.36 125.642 41.36C123.89 41.36 122.486 40.868 121.43 39.884C120.398 38.9 119.882 37.64 119.882 36.104C119.882 34.712 120.326 33.488 121.214 32.432C122.126 31.352 123.41 30.524 125.066 29.948C126.746 29.348 128.702 29.048 130.934 29.048H131.186C131.546 29.048 131.726 28.88 131.726 28.544V27.932C131.726 26.54 131.018 25.844 129.602 25.844C129.026 25.844 128.486 25.976 127.982 26.24C127.478 26.504 127.082 26.936 126.794 27.536C126.722 27.704 126.638 27.824 126.542 27.896C126.47 27.944 126.362 27.968 126.218 27.968C126.05 27.968 125.918 27.956 125.822 27.932L121.106 26.996C120.842 26.948 120.71 26.792 120.71 26.528C120.71 26.36 120.758 26.132 120.854 25.844C121.862 22.988 124.886 21.56 129.926 21.56C133.07 21.56 135.29 22.076 136.586 23.108C137.906 24.14 138.566 25.604 138.566 27.5V40.028C138.566 40.388 138.506 40.64 138.386 40.784C138.29 40.928 138.074 41 137.738 41H132.806C132.518 41 132.302 40.892 132.158 40.676C132.038 40.46 131.942 40.148 131.87 39.74L131.834 39.488C131.81 39.248 131.714 39.128 131.546 39.128C131.354 39.128 131.126 39.248 130.862 39.488ZM131.726 32.936C131.726 32.696 131.69 32.528 131.618 32.432C131.546 32.336 131.402 32.288 131.186 32.288H131.042C130.586 32.288 130.022 32.396 129.35 32.612C128.702 32.828 128.126 33.152 127.622 33.584C127.118 33.992 126.866 34.508 126.866 35.132C126.866 35.636 127.046 36.044 127.406 36.356C127.766 36.668 128.27 36.824 128.918 36.824C129.686 36.824 130.346 36.596 130.898 36.14C131.45 35.684 131.726 35.252 131.726 34.844V32.936ZM143.003 41C142.667 41 142.427 40.94 142.283 40.82C142.139 40.676 142.067 40.436 142.067 40.1V22.748C142.067 22.508 142.127 22.316 142.247 22.172C142.391 22.004 142.559 21.92 142.751 21.92H148.511C148.943 21.92 149.159 22.16 149.159 22.64V24.26C149.159 24.452 149.219 24.548 149.339 24.548C149.435 24.548 149.531 24.5 149.627 24.404C150.443 23.516 151.343 22.82 152.327 22.316C153.311 21.788 154.331 21.524 155.387 21.524C156.611 21.524 157.667 21.824 158.555 22.424C159.443 23.024 160.091 23.876 160.499 24.98C160.547 25.076 160.607 25.124 160.679 25.124C160.727 25.124 160.811 25.064 160.931 24.944C161.603 24.008 162.539 23.216 163.739 22.568C164.963 21.896 166.103 21.56 167.159 21.56C168.815 21.56 170.147 22.088 171.155 23.144C172.187 24.2 172.703 25.676 172.703 27.572V39.92C172.703 40.64 172.331 41 171.587 41H166.331C166.019 41 165.803 40.94 165.683 40.82C165.563 40.676 165.503 40.436 165.503 40.1V28.364C165.503 27.836 165.335 27.416 164.999 27.104C164.663 26.792 164.207 26.636 163.631 26.636C163.199 26.636 162.767 26.768 162.335 27.032C161.903 27.296 161.543 27.632 161.255 28.04C161.063 28.304 160.967 28.628 160.967 29.012V39.92C160.967 40.64 160.607 41 159.887 41H154.631C154.343 41 154.127 40.94 153.983 40.82C153.863 40.676 153.803 40.436 153.803 40.1V28.364C153.803 27.836 153.635 27.416 153.299 27.104C152.963 26.792 152.507 26.636 151.931 26.636C150.827 26.636 149.939 27.236 149.267 28.436V39.956C149.267 40.34 149.171 40.616 148.979 40.784C148.811 40.928 148.511 41 148.079 41H143.003ZM177.157 41C176.797 41 176.545 40.928 176.401 40.784C176.257 40.64 176.185 40.412 176.185 40.1V15.116C176.185 14.852 176.245 14.648 176.365 14.504C176.485 14.36 176.653 14.288 176.869 14.288H182.737C183.169 14.288 183.385 14.54 183.385 15.044V23.144C183.385 23.456 183.481 23.612 183.673 23.612C183.769 23.612 183.901 23.552 184.069 23.432C184.765 22.76 185.485 22.28 186.229 21.992C186.973 21.704 187.777 21.56 188.641 21.56C190.969 21.56 192.781 22.436 194.077 24.188C195.397 25.916 196.057 28.292 196.057 31.316C196.057 34.412 195.337 36.86 193.897 38.66C192.481 40.46 190.477 41.36 187.885 41.36C186.781 41.36 185.749 41.096 184.789 40.568C183.829 40.04 182.989 39.308 182.269 38.372C182.173 38.276 182.089 38.228 182.017 38.228C181.945 38.228 181.873 38.312 181.801 38.48L181.225 40.172C181.057 40.724 180.745 41 180.289 41H177.157ZM183.385 34.34C183.385 35.228 183.613 35.924 184.069 36.428C184.549 36.908 185.173 37.148 185.941 37.148C186.901 37.148 187.609 36.716 188.065 35.852C188.545 34.964 188.785 33.5 188.785 31.46C188.785 29.444 188.557 28.028 188.101 27.212C187.645 26.372 186.961 25.952 186.049 25.952C185.041 25.952 184.153 26.432 183.385 27.392V34.34ZM205.785 33.368C205.785 34.424 206.121 35.228 206.793 35.78C207.489 36.332 208.389 36.608 209.493 36.608C210.141 36.608 210.765 36.464 211.365 36.176C211.965 35.864 212.649 35.336 213.417 34.592C213.513 34.496 213.609 34.448 213.705 34.448C213.801 34.448 213.957 34.484 214.173 34.556L217.449 35.888C217.665 35.96 217.773 36.104 217.773 36.32C217.773 36.464 217.713 36.608 217.593 36.752C216.345 38.504 215.037 39.716 213.669 40.388C212.325 41.036 210.609 41.36 208.521 41.36C206.625 41.36 204.897 40.952 203.337 40.136C201.801 39.32 200.589 38.192 199.701 36.752C198.813 35.288 198.369 33.632 198.369 31.784C198.369 29.792 198.825 28.028 199.737 26.492C200.649 24.932 201.873 23.72 203.409 22.856C204.945 21.992 206.601 21.56 208.377 21.56C210.273 21.56 211.953 21.968 213.417 22.784C214.905 23.6 216.069 24.788 216.909 26.348C217.749 27.884 218.169 29.72 218.169 31.856C218.169 32.192 218.133 32.42 218.061 32.54C217.989 32.66 217.809 32.732 217.521 32.756H206.325C205.965 32.756 205.785 32.96 205.785 33.368ZM210.573 29.048C210.813 29.048 210.969 29.024 211.041 28.976C211.137 28.904 211.185 28.76 211.185 28.544C211.185 27.944 210.969 27.332 210.537 26.708C210.105 26.084 209.493 25.772 208.701 25.772C207.909 25.772 207.237 26.048 206.685 26.6C206.133 27.152 205.869 27.956 205.893 29.012L210.573 29.048ZM234.075 41C233.811 41 233.595 40.94 233.427 40.82C233.259 40.676 233.175 40.46 233.175 40.172V39.488C233.175 39.392 233.151 39.32 233.103 39.272C233.055 39.224 233.007 39.2 232.959 39.2C232.887 39.2 232.779 39.248 232.635 39.344C231.891 40.04 231.123 40.556 230.331 40.892C229.563 41.204 228.651 41.36 227.595 41.36C225.411 41.36 223.659 40.52 222.339 38.84C221.043 37.136 220.395 34.7 220.395 31.532C220.395 29.588 220.743 27.86 221.439 26.348C222.135 24.812 223.059 23.636 224.211 22.82C225.387 21.98 226.635 21.56 227.955 21.56C228.819 21.56 229.599 21.704 230.295 21.992C231.015 22.256 231.723 22.736 232.419 23.432C232.587 23.552 232.719 23.612 232.815 23.612C233.007 23.612 233.103 23.456 233.103 23.144V15.044C233.103 14.54 233.319 14.288 233.751 14.288H239.583C239.799 14.288 239.967 14.36 240.087 14.504C240.207 14.648 240.267 14.852 240.267 15.116V40.1C240.267 40.412 240.195 40.64 240.051 40.784C239.907 40.928 239.655 41 239.295 41H234.075ZM233.067 27.392C232.659 26.912 232.263 26.564 231.879 26.348C231.519 26.132 231.075 26.024 230.547 26.024C229.635 26.024 228.927 26.444 228.423 27.284C227.919 28.124 227.667 29.528 227.667 31.496C227.667 33.488 227.907 34.916 228.387 35.78C228.867 36.62 229.587 37.04 230.547 37.04C231.267 37.04 231.867 36.824 232.347 36.392C232.827 35.936 233.067 35.36 233.067 34.664V27.392Z" fill="#FFFFFE"/>
<circle cx="24" cy="28" r="24" fill="#EF4565"/>
<line x1="14.9896" y1="38.514" x2="31.9896" y2="15.514" stroke="#FFFFFE" stroke-width="5"/>
</svg>
