<svg width="164" height="158" viewBox="0 0 164 158" fill="none" xmlns="http://www.w3.org/2000/svg">
<circle cx="82.9318" cy="77.3778" r="51.2461" fill="#3DA9FC" stroke="#094067" stroke-width="4.54518"/>
<path d="M41.1328 46.7171C46.0289 40.4566 52.0362 36.1524 56.8555 33.4072C58.2643 32.6047 59.5655 31.9389 60.6993 31.3993C59.8347 33.6523 58.5646 36.5653 56.7942 39.7541C54.4593 43.9594 54.1278 48.144 53.8473 51.6837C53.8158 52.0817 53.7849 52.4715 53.7519 52.8523C53.419 56.6926 52.8928 59.7952 50.2087 62.7116C47.4814 65.6748 42.4187 67.7508 37.643 69.0806C35.5381 69.6667 33.586 70.0824 32.0799 70.3616C32.3568 68.6607 32.7972 66.3499 33.4671 63.7469C34.8826 58.2463 37.2683 51.6586 41.1328 46.7171Z" fill="#EF4565" stroke="#094067" stroke-width="4.54518"/>
<path d="M133.869 77.049C133.967 77.1895 134.053 77.3154 134.128 77.4254C134.134 77.7952 134.135 78.325 134.118 78.989C134.083 80.3997 133.969 82.4084 133.654 84.7706C133.02 89.5177 131.587 95.5754 128.435 101.071C125.072 106.937 122.001 110.747 119.813 113.064C119.739 113.143 119.666 113.22 119.594 113.295C119.4 111.682 119.108 109.775 118.668 107.807C118.083 105.184 117.212 102.345 115.897 99.9211C114.596 97.5216 112.708 95.2579 109.963 94.2597C108.709 93.8038 107.477 94.1324 106.633 94.462C105.733 94.8136 104.788 95.3641 103.875 95.9453C103.062 96.462 102.282 96.9925 101.476 97.5408C100.272 98.3594 99.0096 99.2175 97.496 100.128C92.6853 103.023 87.1996 105.2 81.2625 103.317C80.3803 103.038 79.8845 102.628 79.5781 102.198C79.2562 101.746 79.0263 101.103 78.9667 100.195C78.8429 98.3096 79.4855 95.7512 80.7268 92.9224C81.9445 90.1476 83.6319 87.3513 85.3188 85.0749C87.0642 82.7197 88.6102 81.1917 89.4749 80.6799C89.9493 80.3991 90.8416 80.042 92.1964 79.6072C93.4522 79.2041 94.9379 78.7849 96.576 78.3227L96.7962 78.2606C100.181 77.3053 104.172 76.1727 107.41 74.745C111.048 73.1413 111.792 69.4091 112.261 67.0574C112.296 66.8854 112.329 66.7183 112.361 66.5558C112.582 65.4348 112.76 64.5284 113.05 63.7258C113.363 62.8592 113.718 62.3878 114.143 62.1069C115.422 61.2603 117.068 61.2541 119.325 62.3484C121.596 63.4495 124.038 65.4778 126.351 67.8394C128.637 70.1736 130.673 72.7033 132.146 74.6639C132.879 75.6407 133.467 76.4684 133.869 77.049Z" fill="#EF4565" stroke="#094067" stroke-width="4.54518"/>
<path d="M131.606 60.3603C143.182 43.5737 150.768 27.0452 145.568 21.473C136.564 11.8229 101.223 30.1654 66.6322 62.442C32.0414 94.7186 11.2996 128.707 20.304 138.357C25.5846 144.016 48.6996 136.23 66.6321 125.47" stroke="#094067" stroke-width="4.54518"/>
</svg>
